<svg xmlns="http://www.w3.org/2000/svg" viewBox="0 0 512 512"><path d="M501.961 20.078H10.039C4.495 20.078 0 24.573 0 30.118v451.765c0 5.544 4.495 10.039 10.039 10.039h491.922c5.544 0 10.039-4.495 10.039-10.039V30.118c0-5.545-4.495-10.04-10.039-10.04zM139.294 40.157h99.137v42.667h-99.137V40.157zm352.628 431.686H20.078V40.157h99.137v52.706c0 5.544 4.495 10.039 10.039 10.039h362.667v368.941zm0-389.019H258.51V40.157h233.412v42.667z"/><circle cx="468.078" cy="61.49" r="10.039"/><circle cx="434.196" cy="61.49" r="10.039"/><circle cx="405.333" cy="61.49" r="10.039"/><path d="M36.392 51.451h66.51v20.078h-66.51zM155.608 51.451h18.824v20.078h-18.824zM186.98 51.451h38.902v20.078H186.98zM92.863 317.49c-5.544 0-10.039 4.495-10.039 10.039v50.196c0 5.544 4.495 10.039 10.039 10.039h326.274c5.544 0 10.039-4.495 10.039-10.039v-50.196c0-5.544-4.495-10.039-10.039-10.039H92.863zm256 50.196H102.902v-30.118h245.961v30.118zm20.078-30.117h40.157v30.118h-40.157v-30.118zM119.245 175.934c-1.436-5.357-6.941-8.53-12.296-7.099-5.356 1.434-8.535 6.938-7.1 12.294l14.357 53.583a10.002 10.002 0 004.244 7.05 9.99 9.99 0 005.704 1.783c3.184 0 6.316-1.511 8.265-4.328l12.649-18.284 12.434 18.23a10.028 10.028 0 008.302 4.383 9.987 9.987 0 005.648-1.747 10.008 10.008 0 004.302-7.098l14.354-53.573c1.436-5.356-1.744-10.86-7.099-12.296-5.355-1.431-10.86 1.744-12.296 7.099l-9.034 33.719-8.259-12.107-.006.005a10.014 10.014 0 00-2.575-2.604c-4.558-3.155-10.812-2.017-13.968 2.545l-8.542 12.347-9.084-33.902zM225.229 234.712a10.012 10.012 0 004.243 7.049 9.99 9.99 0 005.703 1.783c3.184 0 6.316-1.511 8.265-4.328l12.649-18.284 12.432 18.23a10.028 10.028 0 008.302 4.383 9.987 9.987 0 005.648-1.747 10.008 10.008 0 004.302-7.096l14.356-53.573c1.436-5.356-1.744-10.861-7.099-12.296-5.355-1.431-10.859 1.744-12.296 7.099l-9.035 33.719-8.257-12.107-.006.005a10.014 10.014 0 00-2.575-2.604c-4.559-3.155-10.813-2.017-13.968 2.545l-8.543 12.347-9.086-33.905c-1.437-5.356-6.943-8.53-12.296-7.099-5.356 1.436-8.535 6.94-7.099 12.296l14.36 53.583zM336.248 234.712a10.004 10.004 0 004.244 7.05 9.99 9.99 0 005.704 1.783c3.184 0 6.316-1.511 8.265-4.328l12.649-18.284 12.434 18.23a10.028 10.028 0 008.302 4.383 9.987 9.987 0 005.648-1.747 10.008 10.008 0 004.302-7.098l14.354-53.573c1.436-5.356-1.744-10.86-7.099-12.296-5.352-1.431-10.859 1.744-12.296 7.099l-9.034 33.719-8.258-12.107-.006.005a10.014 10.014 0 00-2.575-2.604c-4.559-3.155-10.813-2.017-13.968 2.545l-8.542 12.347-9.084-33.904c-1.437-5.357-6.942-8.53-12.296-7.099-5.356 1.436-8.535 6.94-7.099 12.296l14.355 53.583z"/></svg>